:FULLY-SPECIFIED
:FORCE-ALL-JOINTS-BE-3DOF
:DEGREES
985
root 1.19981 15.2718 32.8811 6.98439 -5.32297 365.04
lfemur 6.98494 -1.40876 4.26443
ltibia 2.7016 0 0
lfoot -32.4801 -14.6911 0
ltoes -33.5951 0 0
rfemur -27.9873 -9.85987 -10.5437
rtibia 43.2464 0 0
rfoot -19.6863 -0.60978 0
rtoes -46.2114 0 0
lowerback -4.02234 -0.411216 -0.0330292
upperback -1.51913 -0.449642 -7.31086
thorax 0.517993 -0.251169 -7.68318
lowerneck -7.06809 1.00359 4.34052
upperneck 1.91002 0.805771 3.70702
head 1.78489 0.534722 0.463713
lclavicle 6.3562e-15 -3.99127e-14 0
lhumerus -60.0919 -44.3802 113.468
lradius 55.1815 0 0
lwrist 26.5895 0 0
lhand 41.4908 25.4238 0
lfingers 7.12502 0 0
lthumb 63.6589 35.0135 0
rclavicle 6.3562e-15 -3.99127e-14 0
rhumerus 1.17343 0.321812 -1.26178
rradius 34.3928 0 0
rwrist -14.7047 0 0
rhand -18.5893 -37.3684 0
rfingers 7.12502 0 0
rthumb 7.69951 -787.223 0
986
root 1.19844 15.2697 32.8806 6.97533 -5.33285 365.027
lfemur 7.01334 -1.41 4.29141
ltibia 2.67923 0 0
lfoot -32.4941 -14.6583 0
ltoes -33.6298 0 0
rfemur -27.9854 -9.89517 -10.5272
rtibia 43.2533 0 0
rfoot -19.74 -0.565719 0
rtoes -46.1928 0 0
lowerback -4.01413 -0.40365 -0.0332142
upperback -1.51228 -0.439419 -7.3011
thorax 0.521553 -0.245838 -7.67233
lowerneck -7.07299 1.00455 4.36402
upperneck 1.91015 0.804512 3.70793
head 1.78583 0.534408 0.460001
lclavicle 6.35604e-15 -3.91616e-14 0
lhumerus -60.0891 -44.4037 113.5
lradius 55.1811 0 0
lwrist 26.5897 0 0
lhand 41.4629 25.4347 0
lfingers 7.12502 0 0
lthumb 63.6358 35.0539 0
rclavicle 6.35604e-15 -3.91616e-14 0
rhumerus 1.22177 0.100266 -1.19372
rradius 34.2754 0 0
rwrist -14.639 0 0
rhand -18.693 -37.3901 0
rfingers 7.12502 0 0
rthumb 7.59938 -787.246 0
987
root 1.19718 15.2676 32.88 6.96559 -5.34127 365.012
lfemur 7.04065 -1.4099 4.31755
ltibia 2.65851 0 0
lfoot -32.5074 -14.6245 0
ltoes -33.6632 0 0
rfemur -27.9849 -9.93168 -10.5092
rtibia 43.2634 0 0
rfoot -19.7924 -0.520572 0
rtoes -46.1721 0 0
lowerback -4.0052 -0.396229 -0.0337018
upperback -1.50518 -0.429421 -7.29101
thorax 0.525026 -0.240616 -7.66091
lowerneck -7.07796 1.00525 4.38753
upperneck 1.91043 0.802892 3.70892
head 1.78684 0.533921 0.456297
lclavicle 6.35275e-15 -3.84028e-14 0
lhumerus -60.0853 -44.4274 113.532
lradius 55.1809 0 0
lwrist 26.5894 0 0
lhand 41.4341 25.445 0
lfingers 7.12502 0 0
lthumb 63.6119 35.0945 0
rclavicle 6.35275e-15 -3.84028e-14 0
rhumerus 1.26824 -0.124045 -1.12789
rradius 34.1596 0 0
rwrist -14.5731 0 0
rhand -18.7987 -37.413 0
rfingers 7.12502 0 0
rthumb 7.49732 -787.271 0
988
root 1.19603 15.2656 32.8793 6.95519 -5.34826 364.998
lfemur 7.06689 -1.40849 4.34288
ltibia 2.6394 0 0
lfoot -32.52 -14.5898 0
ltoes -33.6955 0 0
rfemur -27.9859 -9.96937 -10.4895
rtibia 43.2766 0 0
rfoot -19.8434 -0.474366 0
rtoes -46.1494 0 0
lowerback -3.99559 -0.388951 -0.0344859
upperback -1.49783 -0.419646 -7.28057
thorax 0.528413 -0.235502 -7.64893
lowerneck -7.08299 1.00569 4.41105
upperneck 1.91086 0.80092 3.70999
head 1.78793 0.533265 0.452602
lclavicle 6.34638e-15 -3.76366e-14 0
lhumerus -60.0807 -44.4512 113.563
lradius 55.181 0 0
lwrist 26.5884 0 0
lhand 41.4045 25.4547 0
lfingers 7.12502 0 0
lthumb 63.5872 35.1353 0
rclavicle 6.34638e-15 -3.76366e-14 0
rhumerus 1.31287 -0.35104 -1.06424
rradius 34.0455 0 0
rwrist -14.507 0 0
rhand -18.9063 -37.4371 0
rfingers 7.12502 0 0
rthumb 7.39338 -787.296 0
